<mxfile host="65bd71144e">
    <diagram id="q2czhMGKwMVTm7MdLmJj" name="Page-1">
        <mxGraphModel dx="511" dy="509" grid="1" gridSize="10" guides="1" tooltips="1" connect="1" arrows="1" fold="1" page="1" pageScale="1" pageWidth="1100" pageHeight="850" background="#FFFFFF" math="0" shadow="0">
            <root>
                <mxCell id="0"/>
                <mxCell id="1" parent="0"/>
                <mxCell id="27" value="Config" style="rounded=0;whiteSpace=wrap;html=1;fillColor=#fff2cc;strokeColor=#d6b656;align=left;verticalAlign=top;fontStyle=5;fontSize=15;gradientColor=#ffd966;" vertex="1" parent="1">
                    <mxGeometry x="300" y="90" width="180" height="275" as="geometry"/>
                </mxCell>
                <mxCell id="26" value="Config" style="rounded=0;whiteSpace=wrap;html=1;fillColor=#fff2cc;strokeColor=#d6b656;align=left;verticalAlign=top;fontStyle=5;fontSize=15;gradientColor=#ffd966;" vertex="1" parent="1">
                    <mxGeometry x="30" y="90" width="180" height="275" as="geometry"/>
                </mxCell>
                <mxCell id="11" value="" style="endArrow=classic;html=1;exitX=0.506;exitY=0.886;exitDx=0;exitDy=0;exitPerimeter=0;entryX=0.5;entryY=0;entryDx=0;entryDy=0;entryPerimeter=0;" edge="1" parent="1" source="3" target="7">
                    <mxGeometry width="50" height="50" relative="1" as="geometry">
                        <mxPoint x="200" y="210" as="sourcePoint"/>
                        <mxPoint x="250" y="160" as="targetPoint"/>
                    </mxGeometry>
                </mxCell>
                <mxCell id="2" value="Reader" style="rounded=0;whiteSpace=wrap;html=1;fillColor=#fff2cc;gradientColor=#ffd966;strokeColor=#d6b656;fontStyle=5;fontSize=15;" vertex="1" parent="1">
                    <mxGeometry x="50" y="120" width="140" height="30" as="geometry"/>
                </mxCell>
                <mxCell id="3" value="CSV" style="shape=document;whiteSpace=wrap;html=1;boundedLbl=1;fillColor=#dae8fc;gradientColor=#7ea6e0;strokeColor=#6c8ebf;" vertex="1" parent="1">
                    <mxGeometry x="75" y="31" width="90" height="50" as="geometry"/>
                </mxCell>
                <mxCell id="5" value="Processor" style="rounded=0;whiteSpace=wrap;html=1;fillColor=#fff2cc;gradientColor=#ffd966;strokeColor=#d6b656;fontStyle=5;fontSize=15;" vertex="1" parent="1">
                    <mxGeometry x="50" y="200" width="140" height="30" as="geometry"/>
                </mxCell>
                <mxCell id="6" value="Writer" style="rounded=0;whiteSpace=wrap;html=1;fillColor=#fff2cc;gradientColor=#ffd966;strokeColor=#d6b656;fontStyle=5;fontSize=15;" vertex="1" parent="1">
                    <mxGeometry x="50" y="280" width="140" height="30" as="geometry"/>
                </mxCell>
                <mxCell id="7" value="DB" style="shape=cylinder3;whiteSpace=wrap;html=1;boundedLbl=1;backgroundOutline=1;size=4.123046875;fillColor=#d5e8d4;gradientColor=#97d077;strokeColor=#82b366;" vertex="1" parent="1">
                    <mxGeometry x="80" y="378" width="80" height="40" as="geometry"/>
                </mxCell>
                <mxCell id="8" value="ImportUsersItem" style="rounded=0;whiteSpace=wrap;html=1;fillColor=#dae8fc;gradientColor=#7ea6e0;strokeColor=#6c8ebf;" vertex="1" parent="1">
                    <mxGeometry x="60" y="160" width="120" height="30" as="geometry"/>
                </mxCell>
                <mxCell id="9" value="Users Entity" style="rounded=0;whiteSpace=wrap;html=1;fillColor=#d5e8d4;gradientColor=#97d077;strokeColor=#82b366;" vertex="1" parent="1">
                    <mxGeometry x="60" y="240" width="120" height="30" as="geometry"/>
                </mxCell>
                <mxCell id="10" value="Users Entity" style="rounded=0;whiteSpace=wrap;html=1;fillColor=#d5e8d4;gradientColor=#97d077;strokeColor=#82b366;" vertex="1" parent="1">
                    <mxGeometry x="60" y="320" width="120" height="30" as="geometry"/>
                </mxCell>
                <mxCell id="13" value="Users Entity" style="rounded=0;whiteSpace=wrap;html=1;fillColor=#d5e8d4;gradientColor=#97d077;strokeColor=#82b366;" vertex="1" parent="1">
                    <mxGeometry x="55" y="325" width="120" height="30" as="geometry"/>
                </mxCell>
                <mxCell id="14" value="" style="endArrow=classic;html=1;exitX=0.5;exitY=1;exitDx=0;exitDy=0;exitPerimeter=0;entryX=0.5;entryY=0;entryDx=0;entryDy=0;" edge="1" parent="1" source="19" target="16">
                    <mxGeometry width="50" height="50" relative="1" as="geometry">
                        <mxPoint x="329.99999999999994" y="462.15" as="sourcePoint"/>
                        <mxPoint x="334.46" y="67.85" as="targetPoint"/>
                    </mxGeometry>
                </mxCell>
                <mxCell id="15" value="Reader" style="rounded=0;whiteSpace=wrap;html=1;fillColor=#fff2cc;gradientColor=#ffd966;strokeColor=#d6b656;fontStyle=5;fontSize=15;" vertex="1" parent="1">
                    <mxGeometry x="320" y="120" width="140" height="30" as="geometry"/>
                </mxCell>
                <mxCell id="16" value="CSV" style="shape=document;whiteSpace=wrap;html=1;boundedLbl=1;fillColor=#dae8fc;gradientColor=#7ea6e0;strokeColor=#6c8ebf;" vertex="1" parent="1">
                    <mxGeometry x="345" y="378" width="90" height="50" as="geometry"/>
                </mxCell>
                <mxCell id="17" value="Processor" style="rounded=0;whiteSpace=wrap;html=1;fillColor=#fff2cc;gradientColor=#ffd966;strokeColor=#d6b656;fontStyle=5;fontSize=15;" vertex="1" parent="1">
                    <mxGeometry x="320" y="200" width="140" height="30" as="geometry"/>
                </mxCell>
                <mxCell id="18" value="Writer" style="rounded=0;whiteSpace=wrap;html=1;fillColor=#fff2cc;gradientColor=#ffd966;strokeColor=#d6b656;fontStyle=5;fontSize=15;" vertex="1" parent="1">
                    <mxGeometry x="320" y="280" width="140" height="30" as="geometry"/>
                </mxCell>
                <mxCell id="19" value="DB" style="shape=cylinder3;whiteSpace=wrap;html=1;boundedLbl=1;backgroundOutline=1;size=4.123046875;fillColor=#d5e8d4;gradientColor=#97d077;strokeColor=#82b366;" vertex="1" parent="1">
                    <mxGeometry x="355" y="31" width="80" height="40" as="geometry"/>
                </mxCell>
                <mxCell id="20" value="ExportUsersItem" style="rounded=0;whiteSpace=wrap;html=1;fillColor=#dae8fc;gradientColor=#7ea6e0;strokeColor=#6c8ebf;" vertex="1" parent="1">
                    <mxGeometry x="330" y="240" width="120" height="30" as="geometry"/>
                </mxCell>
                <mxCell id="21" value="Users Entity" style="rounded=0;whiteSpace=wrap;html=1;fillColor=#d5e8d4;gradientColor=#97d077;strokeColor=#82b366;" vertex="1" parent="1">
                    <mxGeometry x="330" y="160" width="120" height="30" as="geometry"/>
                </mxCell>
                <mxCell id="24" value="ExportUsersItem" style="rounded=0;whiteSpace=wrap;html=1;fillColor=#dae8fc;gradientColor=#7ea6e0;strokeColor=#6c8ebf;" vertex="1" parent="1">
                    <mxGeometry x="330" y="320" width="120" height="30" as="geometry"/>
                </mxCell>
                <mxCell id="25" value="ExportUsersItem" style="rounded=0;whiteSpace=wrap;html=1;fillColor=#dae8fc;gradientColor=#7ea6e0;strokeColor=#6c8ebf;" vertex="1" parent="1">
                    <mxGeometry x="325" y="324" width="120" height="30" as="geometry"/>
                </mxCell>
                <mxCell id="29" value="&amp;nbsp; &amp;nbsp; &amp;nbsp;" style="text;html=1;align=center;verticalAlign=middle;whiteSpace=wrap;rounded=0;" vertex="1" parent="1">
                    <mxGeometry x="10" y="20" width="60" height="30" as="geometry"/>
                </mxCell>
                <mxCell id="30" value="&amp;nbsp; &amp;nbsp; &amp;nbsp;" style="text;html=1;align=center;verticalAlign=middle;whiteSpace=wrap;rounded=0;" vertex="1" parent="1">
                    <mxGeometry x="435" y="410" width="60" height="30" as="geometry"/>
                </mxCell>
            </root>
        </mxGraphModel>
    </diagram>
</mxfile>